<?xml version="1.0"?>
<svg xmlns="http://www.w3.org/2000/svg" fill="#ffffff" viewBox="0 0 64 64" width="512" height="512"><g id="Scooter-2" data-name="Scooter"><path d="M53,53a3,3,0,1,0-3-3A3,3,0,0,0,53,53Zm0-4a1,1,0,1,1-1,1A1,1,0,0,1,53,49Z"/><path d="M61,50a8.006,8.006,0,0,0-1.085-4H61a1,1,0,0,0,1-1A10.99,10.99,0,0,0,51.881,34.043L50.142,21H52a2,2,0,0,0,1.954-1.581A3.958,3.958,0,0,0,56,20h1a1,1,0,0,0,1-1V13a1,1,0,0,0-1-1H56a3.958,3.958,0,0,0-2.046.581A2,2,0,0,0,52,11H44a4,4,0,0,0-3.858,3H36.5a2.5,2.5,0,0,0,0,5h4.048A3.976,3.976,0,0,0,44,21V40a3,3,0,0,1-3,3H34V31a1,1,0,0,0,1-1V28a3,3,0,0,0-3-3H10a3,3,0,0,0,0,6h.1a13.1,13.1,0,0,0-3.141,2.749A2.993,2.993,0,1,0,4.38,38.934,12.969,12.969,0,0,0,4,42v6a1,1,0,0,0,1,1h5.072A8.088,8.088,0,0,0,10,50a7.976,7.976,0,0,0,2.726,6H2v2H62V56H58.274A7.976,7.976,0,0,0,61,50Zm-2,0a6,6,0,0,1-12,0,5.864,5.864,0,0,1,.55-2.488A6.956,6.956,0,0,0,48.957,46h8.5A6,6,0,0,1,59,50Zm.945-6H49.911c.043-.144.1-.278.137-.426l1.739-7.536A9,9,0,0,1,59.945,44ZM56,14v4a2,2,0,0,1,0-4ZM44,13h8v6H45.5a2.5,2.5,0,0,0,0-5H42.278A1.993,1.993,0,0,1,44,13Zm-8,3.5a.5.5,0,0,1,.5-.5h9a.5.5,0,0,1,0,1h-9A.5.5,0,0,1,36,16.5ZM33,28v1H25V27h7A1,1,0,0,1,33,28ZM10,29a1,1,0,0,1,0-2H23v2ZM4,36a1,1,0,0,1,1-1,.989.989,0,0,1,.808.419,12.971,12.971,0,0,0-.8,1.567A1.022,1.022,0,0,1,4,36Zm2,6A11.013,11.013,0,0,1,17,31H32V44a1,1,0,0,0,1,1h8a5.006,5.006,0,0,0,5-5V21h2.125l1.86,13.952L48.1,43.124A4.978,4.978,0,0,1,43.227,47H30V40a3,3,0,0,0-3-3H15a7.008,7.008,0,0,0-7,7v3H6Zm4,5V45H28v2Zm9,3a1,1,0,1,1-1-1A1,1,0,0,1,19,50Zm9-7H10.1A5.009,5.009,0,0,1,15,39H27a1,1,0,0,1,1,1ZM12,50a6.126,6.126,0,0,1,.09-1h3.094A2.966,2.966,0,0,0,15,50a3,3,0,0,0,6,0,2.966,2.966,0,0,0-.184-1H23.91A6.126,6.126,0,0,1,24,50a6,6,0,0,1-12,0Zm11.274,6A7.976,7.976,0,0,0,26,50a8.088,8.088,0,0,0-.072-1h17.3a7.009,7.009,0,0,0,1.886-.279A8.076,8.076,0,0,0,45,50a7.976,7.976,0,0,0,2.726,6Z"/><path d="M8.188,18.874l.842,3.369A1,1,0,0,0,10,23H26a1,1,0,0,0,.97-.757l.842-3.369A2.992,2.992,0,0,0,27,13H25.744c-.025-.1-.048-.2-.076-.285a7.935,7.935,0,0,0-5.051-5.279A2.952,2.952,0,0,0,21,6a3,3,0,0,0-6,0,2.965,2.965,0,0,0,.382,1.436A7.925,7.925,0,0,0,10.335,12.7c-.029.095-.053.2-.079.3H9a2.992,2.992,0,0,0-.812,5.874ZM10.781,21l-.5-2H25.719l-.5,2ZM17,6a1,1,0,1,1,1,1A1,1,0,0,1,17,6Zm1,3a5.948,5.948,0,0,1,5.64,4H12.359A5.946,5.946,0,0,1,18,9ZM9,15H27a1,1,0,0,1,0,2H9a1,1,0,0,1,0-2Z"/><rect x="8" y="4" width="4" height="2"/><rect x="6" y="8" width="4" height="2"/><rect x="2" y="8" width="2" height="2"/></g></svg>
